<?xml version="1.0" encoding="utf-8"?>
<!-- Generator: Adobe Illustrator 25.2.3, SVG Export Plug-In . SVG Version: 6.00 Build 0)  -->
<svg version="1.1" id="圖層_1" xmlns="http://www.w3.org/2000/svg" xmlns:xlink="http://www.w3.org/1999/xlink" x="0px" y="0px"
	 viewBox="0 0 595.28 841.89" style="enable-background:new 0 0 595.28 841.89;" xml:space="preserve">
<g id="SKY3sA.tif">
	<g>
		<path d="M591.67,399.69c-1.52,1.52-3.28,3.28-5.39,5.36c-4.21-0.32-9.4,0.58-13.07-1.37c-4.21-2.23-9.42,1.33-12.64-3.18
			c-0.13-0.17-0.69-0.02-1.03-0.02c-5.15-0.06-10.3,0.56-15.17-2.08c-4.1-2.21-9.27-1.27-13.26-4.14c-0.47-0.34-1.35-0.13-2.04-0.19
			c-8.26-0.71-16.5-1.65-24.76-2.04c-4.14-0.19-7.47-3.15-11.97-2.42c-3.54,0.58-7.6,1.24-10.94-1.85
			c-0.77-0.71-2.75-0.09-4.18-0.11c-4.78-0.11-9.4-0.04-14.18-1.89c-4.27-1.65-9.23-0.15-14.12-2.02
			c-4.83-1.82-10.68-0.21-16.16-2.32c-6.46-2.49-13.47-3.6-20.25-5.32c-1.61-0.41-3.2-1.2-4.81-1.22
			c-15.94-0.19-26.95-9.16-35.81-20.92c-2.83-3.75-6.11-7.66-6.89-13.15c-0.71-5.06-6.01-7.68-10.49-8.43
			c-10.9-1.82-18.6-10.02-28.75-13.32c-2.62-0.86-4.4-5-6.07-7.92c-3.63-6.22-10.04-10.32-12.87-17.06
			c-1.29-3.03-2.9-5.79-3.84-9.12c-1.67-5.99-4.23-11.97-9.2-16.63c-1.93,0-4.01,0-6.48,0c-0.49,0.43-1.31,1.09-2.04,1.82
			c-4.29,4.27-8.82,8.32-12.81,12.85c-10.34,11.82-20.13,24.03-29.29,36.84c-10.94,15.3-23.45,29.59-42.05,36.28
			c-9.35,3.37-18.67,6.57-28.64,8.48c-12.68,2.4-25.17,0.64-37.68,1.76c-7.38,0.64-14.12-2.64-21.33-2.81
			c-0.51-0.02-1.01-0.94-1.35-1.29c-4.91,2.92-11.46,1.67-15.64,6.18c-16.78,5.02-32.21,13.41-48.51,19.61
			c-7.6,2.9-15.1,6.5-22.85,9.31c-7.77,2.81-14.55-0.02-21.5-3.95c1.24-1.33,2.15-2.3,3.24-3.48c9.48,0.32,18.07-3.58,26.58-7.38
			c7.53-3.35,14.53-7.9,22.1-11.11c11.22-4.74,21.56-11.5,33.56-14.44c5.54-1.35,10.84-3.63,16.71-3.54
			c11.39,0.15,22.81-0.02,34.2,0.09c2.66,0.02,5.66-1.2,7.9,1.63c0.45,0.58,2.21,0.77,2.92,0.36c5.17-2.92,11.56-0.3,16.05-2.49
			c4.83-2.36,10-0.45,14.63-3.58c3.93-2.64,9.38-3,14.07-4.55c5.47-1.78,10.58-4.16,14.7-8.45c2.57-2.68,5.36-5.06,8.67-7.19
			c3.8-2.45,6.97-6.33,9.7-10.62c5.09-8.05,12.21-14.78,17.59-22.68c6.89-10.08,16.33-17.81,23.73-27.42
			c3.26-4.25,8.41-7.04,13.22-10.88c3.54,0,7.77,0,12.27,0c8.28,5.6,12.62,14.42,16.24,23.56c3.3,8.35,8.3,15.41,14.57,21.71
			c1.37,1.37,2.3,3.24,3.73,5.34c2.85,0.71,6.59,1.16,9.89,2.6c7.55,3.26,14.78,7.32,22.38,10.45c3.86,1.59,5.88,3.9,7.42,7.64
			c2.02,4.85,4.53,9.61,7.53,13.92c4.38,6.27,10.47,9.98,20.34,12.62c9.68,2.6,18.97,7.19,29.39,6.46
			c7.12,4.1,15.58,3.03,23.11,6.11c4.12,1.69,9.25,0.67,14.05,2.1c5.06,1.52,10.73,1.22,16.18,2.15c10.56,1.8,21.56,0.99,32.16,2.66
			c11.84,1.85,23.75,3.69,35.19,7.75c4.68,1.65,9.5,3.52,14.93,2.81c10.04-1.35,18.22,3.8,26.2,8.78
			C590.3,395.32,590.73,397.83,591.67,399.69z"/>
		<path d="M118.38,567.61c1.91-15.71,1.44-28.77-1.35-36.45c4.23,0,8.28,0,13.2,0c-4.16,16.56-2.57,33.23,0.06,49.35
			c-1.31,1.31-2.06,2.06-3.13,3.11c-2.77,0-5.88,0-10.08,0c-7.72-11.65-15.88-23.92-25.32-38.17c0,14.2,0,26.09,0,38.21
			c-3.84,0-6.93,0-10.47,0c0-17.53,0-35.08,0-52.85c4.74,0,9.27,0,13.47,0C102.61,543.02,110.29,555.01,118.38,567.61z"/>
		<path d="M352.07,583.96c-6.65-3.67-13.92-5.88-16.24-13.47c-1.97-6.5-4.59-13.35-2.08-19.98c5.39-14.23,10.26-21.69,33.45-19.98
			c8.39,3.41,14.42,7.79,17.31,15.45c2.25,5.88,3.45,12.1,1.59,18.07C381.58,578.68,375.27,585.52,352.07,583.96z M343.9,551.08
			c0,2.42-0.04,5.24,0,8.05c0.17,7.47,6.18,15.08,12.81,16.26c7.23,1.31,12.85-2.55,17.36-9.55c3.35-5.17,0.77-10.19,1.95-14.68
			C368.59,536.37,351.64,534.54,343.9,551.08z"/>
		<path d="M506.62,560.1c0,4.91,0,8.71,0,12.87c8.28,0,16.37,0,24.95,0c0,3.67,0,7.02,0,11.22c-11.54-3.95-23.37-1.82-35.44-2.55
			c0-16.93,0-33.75,0-50.81c11.14,0,22.06,0,33.86,0c0.86,2.15,1.82,4.57,2.66,6.67c-1.63,1.61-2.62,2.62-3.99,3.99
			c-7.02,0-14.38,0-21.99,0c0,3.45,0,6.54,0,10.04c6.63,0,13.28,0,20.68,0c0.19,2.96,0.36,5.58,0.54,8.58
			C520.8,560.1,514.15,560.1,506.62,560.1z"/>
		<path d="M580.47,530.96c4.44,3.67,3.67,6.82-0.3,10.26c-6.95,0-14.31,0-22.06,0c0,3.41,0,6.52,0,10.34
			c6.44,0.94,13.45-0.09,20.66,0.58c0,2.55,0,4.93,0,8.05c-6.61,0-13.54,0-20.75,0c0,4.53,0,8.32,0,12.87c8.15,0,16.52,0,25.1,0
			c0,3.82,0,6.91,0,10.56c-5.62-0.6-11.22-1.48-16.86-1.76c-6.03-0.3-12.08-0.06-18.92-0.06c-0.67-16.8-0.06-33.64-0.36-50.83
			C558.28,530.96,569.21,530.96,580.47,530.96z"/>
		<path d="M236.6,572.22c-1.48,1.95-3.09,4.08-5.43,7.14c-5.9,4.38-13.84,5.58-23.54,4.12c-10.15-3.69-12.81-13.28-13.35-23.75
			c-0.47-9.5-0.11-19.05-0.11-28.84c3.6,0,6.72,0,10.68,0c0,9.03,0.36,18.17-0.11,27.27c-0.45,8.52,2.45,14.4,10.75,17.23
			c1.82-0.71,3.69-1.35,5.49-2.15c1.82-0.79,3.58-1.72,5.51-2.66c0-13.45,0-26.52,0-39.78c3.48,0,6.57,0,10.06,0
			C236.6,544.67,236.6,558.44,236.6,572.22z"/>
		<path d="M323.19,534.13c-1.12,2.42-2.27,5-3.26,7.17c-6.42-1.07-11.78-1.95-14.68-2.45c-10.02,1.8-11.2,8.86-14.78,14.76
			c-1.89,5.75,2.42,10.81,4.83,16.69c12.25,5.71,12.25,5.71,23.04,0.86c2.25,2.06,4.46,4.1,7.34,6.72
			c-2.25,1.24-3.86,2.15-5.47,2.98c-1.76,0.92-3.54,1.78-5.62,2.83c-12.94,1.78-24.44-1.29-32.91-15.58
			c-0.39-2.27-1.57-6.87-1.82-11.52c-0.51-9.08,4.53-15.92,10.17-22.27c1.48-1.67,3.93-3.65,5.84-3.58
			C304.7,531.15,313.95,528.43,323.19,534.13z"/>
		<path d="M433.48,530.98c0,3.48,0,6.57,0,10.04c-7.6,0-14.98,0-22.83,0c0,3.71,0,7.06,0,10.79c6.76,0,13.43,0,20.51,0
			c0,3.71,0,7.06,0,10.45c-6.93-0.77-13.62-1.5-20.79-2.3c0,7.66,0,14.31,0,21.41c-3.71,0-7.08,0-10.66,0c0-16.8,0-33.41,0-50.38
			C410.73,530.98,421.68,530.98,433.48,530.98z"/>
		<path d="M459.97,551.94c6.14,0,11.82,0,17.7,0c0.88,0.92,2.19,1.8,2.75,3.03c0.54,1.18,0.3,2.72,0.41,4.33
			c-1.16,1.12-2.38,2.3-2.66,2.55c-6.69-0.67-12.4-1.22-18.52-1.82c0,7.49,0,14.12,0,21.26c-3.69,0-7.04,0-10.68,0
			c0-16.56,0-33.13,0-50.21c10.23,0,20.7,0,31.22,0c3.56,2.36,2.9,5.88,2.4,9.76c-7.29,0-14.63,0-22.61,0
			C459.97,544.82,459.97,548.36,459.97,551.94z"/>
		<path d="M179.25,552.27c0,2.85,0,4.98,0,7.14c-0.99,0.97-2.02,1.97-3.35,3.28c-5.62-0.86-11.54-1.74-16.67-2.53
			c-1.7,1.7-2.45,2.45-3.58,3.56c0.97,5.34-1.67,11.35,2.21,17.68c-1.85,0.79-3.86,2.36-5.84,2.34c-2.45-0.04-4.89-1.42-7.47-2.27
			c3.82-7.68,3.43-41.86,0.67-50.51c11.03,0,21.95,0,33.17,0c3.75,4.66,3.75,4.66,0.02,10.17c-7.12,0-14.48,0-22.27,0
			c0,3.69,0,7.02,0,11.11C164.01,552.27,171.65,552.27,179.25,552.27z"/>
		<path d="M25.07,530.81c4.78,0,8.58,0,13.15,0c-0.92,15.38,2,30.66-3.05,46.26c-1.8,1.87-4.25,4.4-6.63,6.87
			c-5.11,0-10.06,0-15.02,0c-4.01-4.08-8.67-7.75-9.89-14.46c3.48,0,6.54,0,10.79,0c1.29,1.52,3.33,3.9,5.64,6.65
			c1.48-0.94,3.15-1.42,3.56-2.38c1.5-3.63,3.37-7.36,3.65-11.16c0.56-7.75,0.34-15.56,0.06-23.32
			C27.23,536.69,26.01,534.18,25.07,530.81z"/>
		<path d="M53.37,530.81c3.48,0,6.57,0,10.41,0c0,14.46-0.04,28.84,0.04,43.21c0.02,2.25,0.69,4.48,1.14,7.25
			c-4.61,3.8-5.21,3.84-11.59-0.15C53.37,564.8,53.37,548.3,53.37,530.81z"/>
	</g>
</g>
</svg>
